<svg width="94" height="56" viewBox="0 0 94 56" fill="none" xmlns="http://www.w3.org/2000/svg">
<g id="p" clip-path="url(#clip0_3557_2727)">
<path id="Vector" d="M18.2008 15.8229C17.2534 15.6381 16.2736 15.7149 15.3666 16.0451C13.6181 16.7118 12.5471 18.1853 12.5726 19.8938C12.5908 21.1378 13.2684 22.1451 14.2993 22.4602C15.5615 22.8463 16.556 22.2635 17.5178 21.697C18.3957 21.1816 19.2244 20.6952 20.2244 20.9684C20.6454 21.086 21.0203 21.3294 21.2991 21.6661C22.1041 22.6296 21.7034 23.6368 21.239 24.8044C21.1716 24.972 21.106 25.1377 21.0422 25.3053C20.5869 26.5238 20.0514 27.7879 19.3592 29.2869C17.4358 33.4435 15.6435 36.7275 13.7128 39.6236C10.4852 44.4813 8.89509 44.8311 7.23941 43.7928C6.93621 43.6065 6.67729 43.3563 6.48068 43.0597C6.28407 42.763 6.15451 42.4271 6.10101 42.0752C6.05114 41.507 6.19076 40.9383 6.49808 40.4578C6.81406 39.9252 7.1879 39.4292 7.6128 38.9788C7.99895 38.5799 8.43609 38.13 8.64555 37.5471C8.70183 37.3929 8.73676 37.2318 8.74938 37.0681C8.84591 35.9388 7.93702 35.2612 6.99351 35.0919C6.21068 34.9672 5.40866 35.0599 4.67483 35.3596C2.74047 36.1082 1.3835 38.0262 1.04653 40.4851C0.567494 43.3994 2.03557 46.3283 4.87154 48.1169C6.45582 49.1089 8.28456 49.6411 10.1537 49.6542C13.4013 49.6542 17.0005 47.973 19.9894 43.2792C22.8491 38.8731 27.2643 27.8699 28.0038 23.3236V23.2944C28.2078 20.7462 23.8727 16.8447 18.2008 15.8229Z" fill="url(#paint0_linear_3557_2727)"/>
<path id="Vector_2" d="M38.8722 45.2702L38.8394 45.2229C38.0252 44.232 37.4733 39.6292 40.9596 31.7297L40.9778 31.6823C41.2382 30.7716 40.7811 29.9374 39.7228 29.3746C38.4187 28.6842 36.4315 28.5476 35.7156 29.3964C34.6993 30.5986 33.8687 32.8571 33.4698 33.95C33.4279 34.0629 33.3915 34.1631 33.3587 34.2487C31.6101 38.9571 31.153 38.8132 30.2368 38.5218C30.0672 38.4781 29.9088 38.3988 29.7722 38.2892C29.6356 38.1796 29.5239 38.0422 29.4444 37.8861C28.8033 36.6111 29.7851 33.8899 30.6502 31.4856C31.3278 29.6059 31.9125 27.983 31.8032 26.9648C31.7212 26.2144 30.3588 25.1925 29.0528 24.8993C27.7159 24.6006 26.6048 25.045 25.9273 26.1543C23.2461 30.5785 21.7707 37.6821 22.951 40.489C23.4707 41.7592 24.4082 42.8143 25.6085 43.4797C26.4982 43.975 27.5049 44.2217 28.5228 44.1938C30.7085 44.1264 32.6083 42.804 33.947 40.4871C33.8979 42.7912 34.4789 45.3212 36.2184 46.2811L36.2457 46.2957C36.916 46.731 38.231 46.8312 38.7738 46.3194C39.0616 46.0407 39.0962 45.6527 38.8722 45.2702Z" fill="#F25A00"/>
<path id="Vector_3" d="M61.6677 26.9187C59.9592 25.6619 57.4183 25.6236 55.3437 26.824C54.525 27.2972 53.8167 27.9395 53.2658 28.708C52.7149 29.4766 52.3341 30.3537 52.1489 31.281C51.067 28.1645 49.098 27.1882 47.5097 27.3868C45.2803 27.6636 43.2293 30.1444 43.1383 33.9622C42.9717 33.4652 42.8498 32.9544 42.774 32.4358C42.6082 31.4431 42.437 30.4176 41.1547 30.4887C40.4844 30.5233 39.612 30.9331 39.2622 32.6944C38.4936 36.5868 40.8906 45.7086 44.3058 47.3206C44.7549 47.4931 45.2439 47.5342 45.7156 47.439C46.3263 47.3404 46.8921 47.0568 47.3367 46.6266C48.3093 45.6649 49.0415 43.5775 47.0161 39.0913C45.9724 36.7781 45.8977 34.8437 46.8175 33.913C47.0548 33.6711 47.3611 33.5086 47.6945 33.4479C48.0278 33.3872 48.3718 33.4314 48.6791 33.5742C49.781 34.055 49.9541 35.8728 50.1362 37.6323C50.2874 39.166 50.4295 40.6159 51.138 41.4974C51.4853 41.9218 51.9692 42.2125 52.5071 42.3198C53.0449 42.4271 53.6033 42.3444 54.0869 42.0858C54.9703 41.6468 55.7644 40.594 55.3437 38.9584C54.6625 36.3209 54.9794 33.7964 56.1597 32.5287C56.3798 32.2661 56.6653 32.0663 56.9873 31.9492C57.3093 31.8322 57.6565 31.8021 57.9939 31.862C59.5639 32.1353 59.9246 33.9895 59.839 41.3062C59.8117 42.3553 60.2233 42.9145 60.5676 43.1986C61.1632 43.6795 61.9664 43.7105 62.5183 43.5775C63.8735 43.2533 64.8607 41.8745 65.3015 39.696C66.1411 35.5359 64.857 29.2647 61.6677 26.9187Z" fill="#F25A00"/>
<path id="Vector_4" d="M79.8256 45.7669C79.1863 44.2989 75.1627 38.8036 73.2684 36.5578C74.4323 35.7527 76.0661 34.5378 76.3922 32.1863C76.8293 29.0407 74.589 24.7895 71.498 22.897C69.6 21.7386 67.7058 21.6912 66.1612 22.7622C64.7532 23.7604 63.9408 25.2412 63.7387 27.1737L63.4709 26.7803C62.8972 25.9352 62.4436 25.2685 61.8426 25.1702C61.7086 25.15 61.572 25.1582 61.4414 25.1943C61.3109 25.2304 61.1894 25.2935 61.0848 25.3796C60.5475 25.7949 60.3162 26.4543 60.3963 27.3413C60.6878 30.6017 65.1922 36.4958 67.8496 39.718C71.3596 43.9728 75.4377 48.1457 76.7419 48.8251C77.0035 48.98 77.2762 49.1152 77.5579 49.2295C78.6999 49.6885 79.3575 49.4481 79.7218 49.1238C80.4048 48.5155 80.4467 47.195 79.8256 45.7669ZM70.3687 34.281C70.1738 34.0569 70.0281 33.893 69.8969 33.7473C69.6401 33.4613 69.4562 33.2537 69.0991 32.8129C67.265 30.5106 67.3415 28.3158 68.3706 27.334C68.6128 27.0946 68.922 26.9343 69.2572 26.8741C69.5925 26.814 69.9381 26.8568 70.2485 26.9971C70.5415 27.1182 70.8119 27.2882 71.0481 27.4998C71.8313 28.201 72.7511 29.3303 72.6874 30.7255C72.62 31.9386 71.8422 33.1335 70.3669 34.281H70.3687Z" fill="#F25A00"/>
<path id="Vector_5" d="M79.0646 11.476C77.8827 11.6257 76.7512 12.0462 75.7583 12.7045C74.7654 13.3629 73.9378 14.2414 73.3398 15.2718C64.7791 19.9875 55.4679 20.9656 45.4336 18.7071C59.4259 6.7803 70.7952 8.81667 79.0646 11.476Z" fill="#F25A00"/>
<path id="Vector_6" d="M80.3595 8.17375C79.7602 8.32311 78.7967 8.92783 78.7821 8.94058C76.3906 8.32493 70.5857 6.121 64.5076 7.62186C61.5495 6.60732 58.9412 5.39607 56.3457 3.53638C57.3675 3.32327 58.2764 3.10106 59.209 2.9517C60.6935 2.72038 62.1743 2.50181 63.6533 2.32513C65.7938 2.08866 67.9563 2.14073 70.083 2.47995C71.5401 2.72584 72.9627 3.0792 74.2723 3.76406C75.2696 4.3012 76.2314 4.90168 77.1519 5.56182C77.9843 6.13557 78.753 6.80403 79.538 7.44518C79.8149 7.66557 80.059 7.90964 80.3595 8.17375Z" fill="#F25A00"/>
<path id="Vector_7" d="M2.70092 35.5566L1.42773 38.888L3.80106 38.9919L4.37664 36.0102L2.70092 35.5566Z" fill="url(#paint1_linear_3557_2727)"/>
<path id="Vector_8" d="M9.90292 34.2695L8.64613 37.5481L7.65527 35.5154L9.03774 33.7832L9.90292 34.2695Z" fill="url(#paint2_linear_3557_2727)"/>
<path id="Vector_9" d="M39.638 42.7598L39.0097 45.8726L37.9897 45.0438L37.833 42.7598H39.638Z" fill="url(#paint3_linear_3557_2727)"/>
<path id="Vector_10" d="M47.9402 40.459L48.2954 43.4097L46.3701 43.0199L47.9402 40.459Z" fill="#F25A00"/>
<path id="Vector_11" d="M55.1001 36.8652L55.4316 39.4917H54.7285L55.1001 36.8652Z" fill="#F25A00"/>
<path id="Vector_12" d="M59.54 39.1477L59.8479 41.7633L61.0354 41.6084L61.1229 38.3809L59.54 39.1477Z" fill="url(#paint4_linear_3557_2727)"/>
<path id="Vector_13" d="M80.6179 44.6074L80.2335 48.0609L79.0332 46.4744L80.6179 44.6074Z" fill="url(#paint5_linear_3557_2727)"/>
<path id="Vector_14" d="M76.7437 28.9805L76.4177 31.9458L75.6436 31.0715L76.7437 28.9805Z" fill="url(#paint6_linear_3557_2727)"/>
<path id="Vector_15" d="M93.5175 21.9199L92.9619 25.4426L92.2461 24.1457L93.5175 21.9199Z" fill="url(#paint7_linear_3557_2727)"/>
<path id="Vector_16" d="M79.2085 8.25781L78.1612 11.3852H74.7952L74.1504 10.3561L74.7606 9.62389L76.5474 8.34342L79.2085 8.25781Z" fill="url(#paint8_linear_3557_2727)"/>
<path id="Vector_17" d="M80.6981 6.61914L80.3593 8.17282L78.9204 7.87229L78.5889 7.10546L80.6981 6.61914Z" fill="url(#paint9_linear_3557_2727)"/>
<path id="Vector_18" d="M56.3457 3.53552L56.6481 0.947266L59.9977 1.2897L61.7335 2.39531L60.8793 3.9836L56.3457 3.53552Z" fill="url(#paint10_linear_3557_2727)"/>
<path id="Vector_19" d="M45.0527 15.8358L45.4334 18.7064L49.1765 18.2565L49.3513 15.5371L45.0527 15.8358Z" fill="url(#paint11_linear_3557_2727)"/>
<path id="Vector_20" d="M14.0594 15.2402L12.7881 18.5607L14.8281 18.078L13.9174 15.7284" fill="url(#paint12_linear_3557_2727)"/>
<path id="Vector_21" d="M6.99351 35.0943C6.21068 34.9697 5.40866 35.0623 4.67483 35.3621C2.74047 36.1107 1.3835 38.0286 1.04653 40.4876C0.567494 43.4019 2.03557 46.3307 4.87154 48.1194C6.45582 49.1113 8.28456 49.6435 10.1537 49.6567C13.4013 49.6567 17.0005 47.9755 19.9894 43.2817C22.8491 38.8756 27.2643 27.8723 28.0038 23.326V23.2969" stroke="#AC1D00" stroke-width="1.82143" stroke-miterlimit="10"/>
<path id="Vector_22" d="M7.24555 43.7957C6.94091 43.6096 6.68067 43.3591 6.48308 43.0617C6.28548 42.7644 6.15531 42.4274 6.10169 42.0745C6.05182 41.5063 6.19144 40.9375 6.49876 40.457" stroke="#AC1D00" stroke-width="1.82143" stroke-miterlimit="10"/>
<path id="Vector_23" d="M29.0528 24.8895C27.7159 24.5908 26.6048 25.0352 25.9273 26.1445C23.2461 30.5688 21.7707 37.6724 22.951 40.4792C23.4707 41.7495 24.4082 42.8045 25.6085 43.47C26.4982 43.9653 27.5049 44.2119 28.5228 44.184C30.7085 44.1166 32.6083 42.7942 33.947 40.4774C33.8979 42.7815 34.4789 45.3115 36.2184 46.2713L36.2457 46.2859C36.916 46.7212 38.231 46.8214 38.7738 46.3096C39.0598 46.04 39.0944 45.6521 38.8704 45.2696L38.8376 45.2222C38.0234 44.2313 37.4715 39.6286 40.9577 31.729L40.9759 31.6817C41.2364 30.7709 40.7792 29.9367 39.721 29.3739C38.4168 28.6836 36.4296 28.547 35.7138 29.3958" stroke="#AC1D00" stroke-width="1.82143" stroke-miterlimit="10"/>
<path id="Vector_24" d="M30.2449 38.5169C30.0745 38.4748 29.915 38.3967 29.7772 38.2881C29.6393 38.1794 29.5261 38.0426 29.4453 37.8867" stroke="#AC1D00" stroke-width="1.63929" stroke-miterlimit="10"/>
<path id="Vector_25" d="M41.1655 30.4887C40.4952 30.5233 39.6227 30.9331 39.273 32.6944C38.5043 36.5868 40.9013 45.7086 44.3165 47.3206C44.7657 47.4931 45.2547 47.5342 45.7263 47.439C46.3371 47.3404 46.9029 47.0568 47.3474 46.6266C48.32 45.6649 49.0523 43.5775 47.0268 39.0913C45.9831 36.7781 45.9085 34.8437 46.8283 33.913C47.0647 33.6734 47.3691 33.5123 47.7001 33.4517C48.0312 33.3911 48.3729 33.4338 48.6789 33.5742C49.7808 34.055 49.9539 35.8728 50.136 37.6323C50.2872 39.166 50.4293 40.6159 51.1378 41.4974C51.4852 41.9218 51.9691 42.2125 52.5069 42.3198C53.0447 42.4271 53.6031 42.3444 54.0867 42.0858C54.9701 41.6468 55.7642 40.594 55.3435 38.9584C54.6623 36.3209 54.9792 33.7964 56.1595 32.5287C56.3797 32.2661 56.6651 32.0663 56.9871 31.9492C57.3092 31.8322 57.6563 31.8021 57.9937 31.862C59.5638 32.1353 59.9244 33.9895 59.8388 41.3062C59.8115 42.3553 60.2231 42.9145 60.5674 43.1986C61.163 43.6795 61.9662 43.7105 62.5181 43.5775C63.8733 43.2533 64.8605 41.8745 65.3013 39.696C66.1428 35.5359 64.8587 29.2647 61.6693 26.9187C59.9608 25.6619 57.4199 25.6236 55.3453 26.824C54.5267 27.2972 53.8183 27.9395 53.2674 28.708C52.7165 29.4766 52.3358 30.3537 52.1505 31.281C51.0686 28.1645 49.0996 27.1882 47.5113 27.3868" stroke="#AC1D00" stroke-width="1.82143" stroke-miterlimit="10"/>
<path id="Vector_26" d="M63.7338 27.1813L63.466 26.7879C62.8923 25.9427 62.4387 25.2761 61.8377 25.1777C61.7037 25.1575 61.5671 25.1657 61.4365 25.2018C61.306 25.2379 61.1845 25.3011 61.08 25.3872C60.5426 25.8025 60.3113 26.4618 60.3915 27.3489C60.6829 30.6092 65.1873 36.5034 67.8448 39.7255C71.3547 43.9804 75.4329 48.1533 76.737 48.8327C76.9986 48.9875 77.2713 49.1227 77.553 49.237C78.695 49.696 79.3526 49.4556 79.7169 49.1314C80.4054 48.5194 80.4454 47.1989 79.8243 45.7708C79.185 44.3028 75.1615 38.8075 73.2672 36.5617C74.4311 35.7566 76.0649 34.5417 76.3909 32.1902C76.8281 29.0446 74.5877 24.7934 71.4967 22.9009C69.5988 21.7425 67.7045 21.6951 66.1599 22.7661" stroke="#AC1D00" stroke-width="1.82143" stroke-miterlimit="10"/>
<path id="Vector_27" d="M76.3885 21.2829C75.2173 25.0132 74.385 25.2754 77.7127 28.5886C80.5979 31.3445 83.7927 32.5666 86.6815 32.073C87.1508 31.993 87.6113 31.8679 88.0566 31.6996C90.7797 30.6651 92.6867 28.0713 93.0328 24.9276C93.4572 21.0606 91.4992 17.0717 87.6577 13.9844" stroke="#AC1D00" stroke-width="1.82143" stroke-miterlimit="10"/>
<path id="Vector_28" d="M15.1885 9.69234L15.8351 9.2133C15.8605 9.31738 15.9217 9.40922 16.0079 9.4728C16.0941 9.53638 16.1999 9.56767 16.3068 9.5612C16.5983 9.5612 16.8314 9.40091 17.0063 9.04937L17.8041 7.45198H17.0627L17.3687 6.8418H18.866L17.7731 9.01113C17.3432 9.87631 16.8223 10.1859 16.1083 10.1859C15.6074 10.1859 15.2941 10.0184 15.1885 9.69234Z" fill="white"/>
<path id="Vector_29" d="M21.6486 7.60156L20.3827 10.1297H19.6888L19.8217 9.8565C19.5586 10.0535 19.2397 10.1619 18.911 10.1661C18.3646 10.1661 18.0968 9.86561 18.2644 9.30642C18.2971 9.20147 18.3391 9.09966 18.3901 9.00225L19.0895 7.60156H19.8181L19.1423 8.95489C19.1121 9.01329 19.0871 9.07424 19.0677 9.13703C18.9912 9.39021 19.0859 9.53046 19.3718 9.53046C19.7361 9.53046 20.0494 9.32464 20.2716 8.88203L20.9182 7.60703L21.6486 7.60156Z" fill="white"/>
<path id="Vector_30" d="M26.1737 8.41918C26.1405 8.52595 26.0978 8.62957 26.0462 8.72882L25.3468 10.1295H24.6182L25.2922 8.78164C25.3237 8.71962 25.3499 8.65503 25.3705 8.58857C25.447 8.33539 25.3504 8.19878 25.0882 8.19878C24.7494 8.19878 24.4561 8.3955 24.2339 8.83264L23.5855 10.1295H22.8569L23.5308 8.78164C23.5608 8.72313 23.5858 8.6622 23.6055 8.5995C23.6838 8.34085 23.5891 8.20425 23.3268 8.20425C22.9826 8.20425 22.693 8.40096 22.4653 8.84721L21.8223 10.135H21.0938L22.3688 7.60682H23.0627L22.9279 7.87092C23.1836 7.68055 23.4926 7.57541 23.8113 7.57039C24.1592 7.57039 24.4033 7.71064 24.4616 7.98385C24.766 7.72187 25.1529 7.57548 25.5544 7.57039C26.0699 7.56492 26.3413 7.86 26.1737 8.41918Z" fill="white"/>
<path id="Vector_31" d="M29.4298 8.69556C29.173 9.54617 28.3698 10.1655 27.5865 10.1655C27.2223 10.1655 26.9691 10.0489 26.8816 9.79025L26.2569 11.0398H25.5283L27.2532 7.60088H27.9472L27.8215 7.85042C28.0718 7.66748 28.3731 7.56748 28.683 7.56445C29.2641 7.56445 29.6466 7.97792 29.4298 8.69556ZM28.6776 8.72835C28.7814 8.38592 28.6357 8.17099 28.2696 8.17099C28.0379 8.18639 27.8171 8.2752 27.6392 8.42455C27.4614 8.57389 27.3358 8.776 27.2805 9.00156C27.1767 9.34399 27.3188 9.56075 27.6849 9.56075C27.9175 9.54598 28.1393 9.45725 28.3179 9.30749C28.4965 9.15774 28.6225 8.95481 28.6776 8.72835Z" fill="white"/>
<path id="Vector_32" d="M30.6101 9.03435C30.744 8.61421 31.006 8.24652 31.3595 7.9829C31.7129 7.71927 32.1401 7.57295 32.5809 7.56445C33.355 7.56445 33.7193 8.01071 33.5117 8.69556C33.3786 9.11614 33.1167 9.48429 32.7631 9.74803C32.4095 10.0118 31.982 10.1578 31.5409 10.1655C30.7722 10.1655 30.4043 9.71557 30.6101 9.03435ZM32.7594 8.72835C32.8632 8.38592 32.7212 8.17099 32.3551 8.17099C32.1227 8.18564 31.9011 8.27411 31.7225 8.42352C31.544 8.57292 31.4178 8.77544 31.3624 9.00156C31.2586 9.34399 31.4043 9.56075 31.7722 9.56075C32.0038 9.54486 32.2244 9.45561 32.4019 9.30595C32.5794 9.15628 32.7046 8.95397 32.7594 8.72835Z" fill="white"/>
<path id="Vector_33" d="M36.2021 7.56414L35.867 8.23989C35.8032 8.23989 35.7613 8.23078 35.7012 8.23078C35.2677 8.23078 34.9307 8.43296 34.6921 8.90654L34.0801 10.1287H33.3516L34.6175 7.60057H35.3114L35.1602 7.90293C35.4549 7.66724 35.8252 7.54682 36.2021 7.56414Z" fill="white"/>
<path id="Vector_34" d="M37.9696 6.8418H38.7346L37.3867 9.50838H39.0351L38.72 10.1295H36.3193L37.9696 6.8418Z" fill="white"/>
<path id="Vector_35" d="M39.5615 9.03435C39.6948 8.61392 39.9567 8.24593 40.3103 7.98222C40.6638 7.71852 41.0912 7.5724 41.5322 7.56445C42.3064 7.56445 42.6688 8.01071 42.463 8.69556C42.3296 9.116 42.0677 9.48399 41.7142 9.74769C41.3606 10.0114 40.9332 10.1575 40.4922 10.1655C39.7217 10.1655 39.3556 9.71557 39.5615 9.03435ZM41.7107 8.72835C41.8146 8.38592 41.6725 8.17099 41.3064 8.17099C41.074 8.18564 40.8524 8.27411 40.6739 8.42352C40.4953 8.57292 40.3691 8.77544 40.3137 9.00156C40.2099 9.34399 40.3556 9.56075 40.7217 9.56075C40.9537 9.54523 41.1746 9.45616 41.3525 9.30646C41.5304 9.15677 41.6559 8.95425 41.7107 8.72835Z" fill="white"/>
<path id="Vector_36" d="M42.3623 9.90296L42.8049 9.37292C43.0408 9.53807 43.3241 9.62184 43.6118 9.61153C43.9542 9.61153 44.1327 9.51864 44.1783 9.36746C44.2857 9.00317 42.8577 9.30553 43.1164 8.45674C43.2876 7.88845 43.9142 7.5697 44.6518 7.5697C44.9561 7.55734 45.2577 7.63054 45.5225 7.78099L45.0981 8.31649C44.895 8.18056 44.6538 8.11293 44.4096 8.12342C44.0708 8.12342 43.8868 8.23635 43.8468 8.37296C43.7338 8.73724 45.1564 8.44763 44.9032 9.28367C44.7211 9.86107 44.0908 10.1652 43.3641 10.1652C42.9178 10.1652 42.5299 10.0523 42.3623 9.90296Z" fill="white"/>
<path id="Vector_37" d="M48.2783 9.06167H46.3439C46.2638 9.40592 46.4222 9.57896 46.8412 9.57896C47.1073 9.57655 47.3667 9.49473 47.5861 9.34399L47.7464 9.8285C47.4001 10.0501 46.9973 10.1671 46.5862 10.1655C45.7975 10.1655 45.4296 9.71921 45.6372 9.03435C45.7634 8.61697 46.0182 8.25011 46.3652 7.98614C46.7123 7.72218 47.1338 7.57459 47.5697 7.56445C48.3074 7.56445 48.6408 8.0016 48.4368 8.67735C48.3953 8.80986 48.3423 8.93846 48.2783 9.06167ZM46.5242 8.63546H47.7792C47.8794 8.30213 47.71 8.11453 47.373 8.11453C47.1986 8.12053 47.0287 8.17168 46.8799 8.26298C46.7311 8.35429 46.6086 8.48263 46.5242 8.63546Z" fill="white"/>
<path id="Vector_38" d="M79.0098 7.00718C78.4051 6.50628 77.7986 6.00539 77.1538 5.56096C76.2332 4.90083 75.2714 4.30034 74.2741 3.7632C72.9626 3.07834 71.5419 2.72499 70.0848 2.4882C67.9582 2.14898 65.7956 2.09691 63.6551 2.33338C62.9812 2.41352 62.3054 2.50459 61.6315 2.59931L61.7353 2.40441L59.9995 1.2988L56.6481 0.947266L56.3457 3.53552C58.9412 5.39521 61.5495 6.60646 64.5076 7.621C70.5911 6.12014 76.3906 8.32407 78.7821 8.93972C78.7967 8.92697 79.7602 8.32225 80.3595 8.1729L80.6983 6.62103L79.0098 7.00718Z" fill="url(#paint13_linear_3557_2727)"/>
<path id="Vector_39" d="M73.5951 10.0348L73.4129 12.1131L73.3328 15.2714C64.772 19.9871 55.459 20.9652 45.4248 18.7067L45.0459 15.8343L49.3445 15.5374L49.3354 15.6794C58.7904 9.09678 66.9286 8.74342 73.5951 10.0348Z" fill="url(#paint14_linear_3557_2727)"/>
<path id="Vector_40" d="M27.3154 26.2477C27.605 25.2908 27.8379 24.3177 28.013 23.3334V23.3043C28.2042 20.7542 23.8692 16.8527 18.1973 15.8364C17.2499 15.6515 16.2701 15.7284 15.3631 16.0586C14.9749 16.2066 14.6076 16.4044 14.2703 16.6469L13.9205 15.7362L14.0626 15.248L12.8641 18.3791C12.8641 18.3918 12.8641 18.4028 12.8495 18.4137L12.7913 18.5685C12.64 18.9971 12.5659 19.4492 12.5727 19.9036C12.5909 21.1477 13.2685 22.1549 14.2994 22.47C15.5617 22.8562 16.5562 22.2733 17.5179 21.7069C18.3958 21.1914 19.2246 20.7051 20.2245 20.9783C20.6455 21.0958 21.0204 21.3392 21.2992 21.6759C22.1043 22.6394 21.7035 23.6467 21.2391 24.8142C21.1717 24.9818 21.1061 25.1475 21.0424 25.3151C20.9058 25.6794 20.7582 26.0583 20.6034 26.4426C22.8426 26.4914 25.0828 26.4263 27.3154 26.2477Z" fill="url(#paint15_linear_3557_2727)"/>
<path id="Vector_41" d="M20.6035 26.4354C20.2392 27.3151 19.8421 28.2459 19.3594 29.2896C17.436 33.4461 15.6437 36.7301 13.713 39.6262C10.4854 44.484 8.89528 44.8337 7.23959 43.7955C6.93597 43.6088 6.67679 43.358 6.48016 43.0607C6.28353 42.7634 6.1542 42.4267 6.1012 42.0742C6.05133 41.506 6.19095 40.9373 6.49827 40.4568C6.81424 39.9242 7.18809 39.4282 7.61299 38.9778C7.99913 38.5789 8.43628 38.129 8.64574 37.5461L9.90253 34.2676L9.03735 33.7812L7.7751 35.3622C7.53086 35.2305 7.26703 35.1388 6.9937 35.0908C6.21087 34.9662 5.40885 35.0589 4.67501 35.3586C4.35017 35.4856 4.03945 35.6462 3.7479 35.8376L2.70058 35.5535L1.42558 38.8849C1.24136 39.4033 1.11075 39.9391 1.03579 40.4841C0.556752 43.3984 2.02483 46.3273 4.8608 48.1159C6.44508 49.1079 8.27382 49.6401 10.143 49.6532C13.3906 49.6532 16.9897 47.972 19.9787 43.2782C22.3466 39.6353 25.7508 31.5299 27.2881 26.2441C25.0646 26.4207 22.8335 26.4845 20.6035 26.4354Z" fill="url(#paint16_linear_3557_2727)"/>
<path id="Vector_42" d="M78.848 14.9878C79.0276 15.3243 79.2328 15.6464 79.4618 15.9513C79.5054 15.7405 79.5868 15.5393 79.7022 15.3575C79.7022 15.3575 80.1303 14.6636 81.3142 14.5579C81.53 14.5397 81.7469 14.5397 81.9627 14.5579C83.2486 14.6672 84.8642 15.3721 86.6783 16.6216C89.0298 18.3265 90.4615 20.4466 90.3212 22.024C90.3068 22.2114 90.2644 22.3955 90.1955 22.5704C91.2046 22.7435 92.1991 22.6706 92.5506 22.157C92.734 21.8643 92.9125 21.5668 93.0861 21.2644C92.8621 19.1224 91.3995 16.7892 88.8331 14.5852C86.3377 12.4778 83.3688 11.3504 80.4946 11.4105C79.2721 11.4246 78.0654 11.688 76.9482 12.1846C76.9756 12.2228 77.0029 12.2611 77.032 12.2975C77.8717 13.0152 78.2506 14.0479 78.848 14.9878Z" fill="url(#paint17_linear_3557_2727)"/>
<path id="Vector_43" d="M92.8505 21.7431C92.7485 22.1948 92.6399 22.6404 92.5245 23.08C92.3023 23.8632 91.3916 24.233 90.4262 24.2767C90.3528 24.975 90.0113 25.6175 89.4736 26.069C88.0019 27.2766 85.7306 26.936 83.3973 25.1583C81.1988 23.4825 79.2335 20.6484 79.2499 18.3716C78.974 18.0161 78.7233 17.6418 78.4995 17.2514C77.7709 16.1586 77.2245 14.8836 76.3137 14.155L76.2136 14.0293C75.7535 14.5165 75.3536 15.057 75.0223 15.6394L74.5943 14.8071L74.0133 18.3971C73.9859 18.5392 73.9641 18.6831 73.9441 18.8251V18.8597C73.4923 22.1802 74.8384 25.7174 77.7181 28.588C80.6032 31.3439 83.798 32.566 86.6868 32.0724C87.1561 31.9923 87.6166 31.8673 88.062 31.699C90.6357 30.7209 92.479 28.3476 92.9653 25.4369L93.5117 21.9143L93.0218 22.774C92.9824 22.4277 92.9252 22.0836 92.8505 21.7431Z" fill="url(#paint18_linear_3557_2727)"/>
<path id="Vector_44" d="M21.29 44.2969C23.5286 46.7012 25.9729 48.9251 28.9073 50.4096C32.6758 52.3312 36.9853 53.0452 41.1801 53.0143C50.0815 52.8977 57.4838 47.131 65.9389 45.0309C67.0311 44.7476 68.1377 44.5227 69.2539 44.357C68.2339 44.8427 67.229 45.3315 66.2394 45.8232C59.1886 49.3167 52.7244 54.5443 44.7465 55.7501C40.0592 56.4075 35.2815 55.7485 30.9473 53.8467C26.7106 51.9797 23.2809 48.4097 21.2937 44.2969H21.29Z" fill="white"/>
<path id="Vector_45" d="M78.2195 11.2095C78.5054 11.2969 78.7859 11.3916 79.0646 11.4754C77.8827 11.6252 76.7513 12.0456 75.7584 12.7039C74.7655 13.3623 73.9378 14.2409 73.3398 15.2713L73.42 12.1129L73.6021 10.0346C73.8389 10.0802 74.0739 10.1293 74.307 10.1785L74.7678 9.6321L76.5547 8.35709L79.214 8.27148L78.2195 11.2095Z" fill="url(#paint19_linear_3557_2727)"/>
<path id="Vector_46" d="M80.6987 6.62184C80.0903 6.74387 79.0922 7.3067 79.0758 7.31945C76.6879 6.59087 70.923 4.14651 64.7192 5.38326C61.7758 4.24122 59.193 2.91522 56.6484 0.948071C57.6885 0.778678 58.6156 0.596534 59.5627 0.487248C61.0654 0.319676 62.5754 0.166676 64.0762 0.0537466C66.2473 -0.0902884 68.428 0.0554939 70.5606 0.487248C72.0177 0.79507 73.4421 1.21582 74.7371 1.9444C75.7214 2.52448 76.668 3.1663 77.5713 3.86601C78.3873 4.47619 79.1359 5.17744 79.9027 5.85137C80.1704 6.08816 80.4072 6.34498 80.6987 6.62184Z" fill="white"/>
<path id="Vector_47" d="M79.2083 8.26014C78.013 8.41743 76.8697 8.84664 75.8663 9.51477C74.8628 10.1829 74.0259 11.0722 73.4197 12.1143C64.7497 16.9156 55.291 17.9902 45.0527 15.8337C59.1707 3.76484 70.7605 5.68281 79.2083 8.26014Z" fill="white"/>
<path id="Vector_48" d="M88.1803 11.0361C85.4773 8.9032 82.5339 8.20741 79.8728 9.07441C77.5158 9.83577 75.6361 11.8066 74.8183 14.3384L74.8001 14.3948C73.6289 18.1251 74.9112 22.3272 78.2353 25.6404C81.1205 28.3962 84.3152 29.6184 87.2059 29.1248C87.6745 29.0444 88.1344 28.9194 88.5792 28.7514C91.3023 27.7168 93.2093 25.1212 93.5554 21.9793C93.9816 18.1124 92.029 14.1234 88.1803 11.0361ZM90.9635 20.5622C91.0491 21.6332 90.7158 22.5166 89.9981 23.1122C88.5264 24.3198 86.2533 23.9792 83.92 22.2015C81.4356 20.3072 79.2462 16.9339 79.8837 14.5515C79.986 14.2192 80.1584 13.9127 80.3894 13.6528C80.6204 13.393 80.9045 13.1857 81.2225 13.0451C81.414 12.9602 81.6153 12.899 81.8217 12.863C83.0311 12.6572 84.6559 13.1562 86.5702 14.3292C89.0655 15.9795 90.7904 18.4202 90.9635 20.5622Z" fill="white"/>
<path id="Vector_49" d="M88.1803 10.6727C85.4719 8.53798 82.523 7.83309 79.8691 8.7092C77.5158 9.47238 75.6361 11.4432 74.8183 13.975L74.8001 14.0314C73.6289 17.7617 74.9112 21.9638 78.2353 25.277C81.1205 28.031 84.3152 29.255 87.2059 28.7614C87.6748 28.6813 88.1347 28.5556 88.5792 28.3862C91.3023 27.3534 93.2093 24.7579 93.5554 21.6159C93.9816 17.749 92.029 13.76 88.1803 10.6727ZM90.9635 20.1988C91.0491 21.268 90.7158 22.1532 89.9981 22.7488C88.5264 23.9564 86.2533 23.6158 83.92 21.8381C81.4356 19.9438 79.2462 16.5687 79.8837 14.1881C79.9858 13.8554 80.1581 13.5486 80.3891 13.2884C80.6201 13.0282 80.9043 12.8207 81.2225 12.6799C81.4143 12.5958 81.6155 12.5346 81.8217 12.4978C83.0311 12.292 84.6559 12.791 86.5702 13.964C89.0655 15.6161 90.7904 18.0568 90.9635 20.1988Z" fill="url(#paint20_linear_3557_2727)"/>
<path id="Vector_50" d="M19.4582 12.8207C18.5102 12.6362 17.53 12.7131 16.6223 13.0429C14.8737 13.7095 13.8027 15.1849 13.8282 16.8916C13.8482 18.1356 14.5258 19.1429 15.5549 19.4598C16.8172 19.8459 17.8117 19.2613 18.7734 18.6966C19.6513 18.1812 20.4801 17.693 21.4818 17.968C21.902 18.0853 22.2762 18.3281 22.5547 18.6638C23.3616 19.6292 22.959 20.6364 22.4946 21.8022C22.429 21.9697 22.3616 22.1373 22.2997 22.3031C21.8425 23.5216 21.307 24.7857 20.6148 26.2847C18.6932 30.4412 16.9009 33.7271 14.9684 36.6232C11.7481 41.4828 10.158 41.8325 8.50049 40.7997C8.19546 40.6129 7.93512 40.3615 7.7378 40.0631C7.54048 39.7648 7.41099 39.4268 7.35845 39.073C7.30886 38.5056 7.44779 37.9378 7.7537 37.4574C8.07014 36.9268 8.44396 36.4327 8.86842 35.9839C9.25456 35.5868 9.69353 35.1351 9.90299 34.5522C9.95773 34.3976 9.99262 34.2366 10.0068 34.0732C10.1015 32.9439 9.19263 32.2663 8.24913 32.0969C7.46629 31.9723 6.66428 32.0649 5.93044 32.3647C3.99608 33.1133 2.63911 35.0331 2.30397 37.4902C1.82311 40.4045 3.29118 43.3333 6.12898 45.122C7.71259 46.1156 9.54165 46.6486 11.4111 46.6611C14.6588 46.6611 18.2579 44.9799 21.2469 40.2861C24.1084 35.8782 28.5235 24.8767 29.2612 20.3286V20.2995C29.4652 17.7458 25.1284 13.8425 19.4582 12.8207Z" fill="white"/>
<path id="Vector_51" d="M19.4582 12.544C18.5103 12.3586 17.5298 12.4354 16.6223 12.7662C14.8737 13.4328 13.8027 14.9064 13.8282 16.6149C13.8482 17.8589 14.5258 18.8662 15.5549 19.1813C16.8172 19.5674 17.8117 18.9845 18.7734 18.4181C19.6513 17.9026 20.4801 17.4163 21.4818 17.6895C21.9021 17.8075 22.2764 18.0509 22.5547 18.3871C23.3616 19.3507 22.959 20.3579 22.4946 21.5254C22.429 21.693 22.3616 21.8588 22.2997 22.0263C21.8425 23.2449 21.307 24.509 20.6148 26.008C18.6932 30.1645 16.9009 33.4486 14.9684 36.3446C11.7408 41.2024 10.1507 41.5521 8.4932 40.5139C8.1906 40.3273 7.93232 40.0769 7.73634 39.7803C7.54037 39.4836 7.41141 39.1479 7.35845 38.7963C7.30886 38.2284 7.44778 37.6599 7.7537 37.1789C8.06967 36.6463 8.44351 36.1503 8.86842 35.6999C9.25456 35.301 9.69353 34.8511 9.90299 34.2682C9.95755 34.1135 9.99243 33.9526 10.0068 33.7892C10.1015 32.6599 9.19263 31.9823 8.24913 31.8129C7.46629 31.6883 6.66428 31.7809 5.93044 32.0807C3.99608 32.8293 2.63911 34.7472 2.30397 37.2062C1.82311 40.1205 3.29118 43.0493 6.12898 44.838C7.7131 45.8303 9.54194 46.3625 11.4111 46.3753C14.6588 46.3753 18.2579 44.6941 21.2469 40.0003C24.1084 35.5942 28.5235 24.5909 29.2612 20.0446V20.0155C29.4652 17.4673 25.1284 13.5658 19.4582 12.544Z" fill="url(#paint21_linear_3557_2727)"/>
<path id="Vector_52" d="M39.7232 29.3749C38.419 28.6845 36.4319 28.5479 35.716 29.3967C34.6997 30.5989 33.8691 32.8575 33.4702 33.9503C33.4283 34.0632 33.3919 34.1634 33.3591 34.249C31.6105 38.9574 31.1533 38.8135 30.2372 38.5221C30.0676 38.4784 29.9092 38.3991 29.7726 38.2895C29.636 38.1799 29.5243 38.0425 29.4448 37.8864C28.8037 36.6114 28.9786 33.8793 29.8437 31.4677C30.5213 29.588 31.3009 28.0926 31.1971 27.0744C31.1151 26.324 30.3592 25.1929 29.0532 24.8996C27.7163 24.6009 25.9113 24.8504 25.2282 25.9597C22.5452 30.3839 21.7675 37.6824 22.946 40.4893C23.4657 41.7595 24.4031 42.8146 25.6034 43.4801C26.4932 43.9753 27.4998 44.222 28.5177 44.1941C30.7035 44.1267 32.6032 42.8043 33.942 40.4874C33.8928 42.7916 34.4738 45.3215 36.2133 46.2814L36.2406 46.296C36.9109 46.7313 38.226 46.8315 38.7688 46.3197C38.8935 46.2046 38.9751 46.0504 39.0001 45.8825L39.6285 42.7697L38.1149 40.3763C38.0274 38.105 38.7287 36.7863 40.9599 31.73L40.9782 31.6826C41.2386 30.7828 40.7814 29.9377 39.7232 29.3749Z" fill="url(#paint22_linear_3557_2727)"/>
<path id="Vector_53" d="M39.5006 42.3333L39.466 42.2859C38.6537 41.2951 38.1 36.6941 41.588 28.7946L41.6062 28.7472C41.8649 27.8365 41.4095 27.0023 40.3512 26.4376C39.0471 25.7473 37.0581 25.6107 36.3441 26.4595C35.3277 27.6617 34.4972 29.9202 34.0964 31.0131C34.0564 31.126 34.0181 31.2262 33.9872 31.3118C32.2386 36.022 31.7814 35.8763 30.8634 35.5849C30.6927 35.5414 30.5333 35.4621 30.3957 35.3522C30.2582 35.2423 30.1456 35.1043 30.0656 34.9474C29.4226 33.6724 30.4044 30.9512 31.2714 28.545C31.949 26.6653 32.5336 25.0424 32.4244 24.0242C32.3424 23.2738 30.98 22.252 29.674 21.9606C28.3352 21.66 27.226 22.1063 26.5484 23.2137C23.8654 27.6398 22.3919 34.7416 23.5704 37.5502C24.092 38.8194 25.0298 39.8734 26.2297 40.5392C27.1189 41.0357 28.1259 41.2824 29.144 41.2532C31.3297 41.1858 33.2294 39.8653 34.5682 37.5466C34.519 39.8507 35.1001 42.3807 36.8377 43.3406L36.8668 43.3551C37.5371 43.7904 38.8522 43.8906 39.395 43.3788C39.6882 43.1038 39.7247 42.7158 39.5006 42.3333Z" fill="white"/>
<path id="Vector_54" d="M39.5006 42.1296L39.4678 42.0822C38.6537 41.0914 38.1 36.4904 41.588 28.5909L41.6062 28.5435C41.8649 27.6328 41.4095 26.7986 40.3512 26.2339C39.0471 25.5436 37.0581 25.407 36.3441 26.2576C35.3277 27.4579 34.4972 29.7183 34.0964 30.8112C34.0564 30.9241 34.0181 31.0261 33.9872 31.1117C32.2386 35.8201 31.7814 35.6653 30.8634 35.383C30.6926 35.3399 30.533 35.2607 30.3954 35.1507C30.2578 35.0407 30.1453 34.9026 30.0656 34.7455C29.4226 33.4705 30.4044 30.7493 31.2714 28.345C31.949 26.4653 32.5336 24.8405 32.4244 23.8224C32.3424 23.0737 30.98 22.0501 29.674 21.7587C28.3352 21.46 27.226 21.9044 26.5484 23.0136C23.8654 27.4379 22.3919 34.5397 23.5704 37.3483C24.0924 38.6177 25.03 39.6722 26.2297 40.3391C27.1197 40.8336 28.1261 41.0801 29.144 41.0531C31.3297 40.9857 33.2294 39.6634 34.5682 37.3447C34.519 39.6488 35.1001 42.1806 36.8377 43.1405L36.8668 43.1551C37.5371 43.5904 38.8522 43.6906 39.395 43.1787C39.6882 42.9019 39.7247 42.5121 39.5006 42.1296Z" fill="url(#paint23_linear_3557_2727)"/>
<path id="Vector_55" d="M61.6677 26.9187C59.9592 25.6619 57.4183 25.6236 55.3437 26.824C54.525 27.2972 53.8167 27.9395 53.2658 28.708C52.7149 29.4766 52.3341 30.3537 52.1489 31.281C51.067 28.1645 49.098 27.1882 47.5097 27.3868C45.2803 27.6636 43.2293 30.1444 43.1383 33.9622C42.9717 33.4652 42.8498 32.9544 42.774 32.4358C42.6082 31.4431 42.437 30.4176 41.1547 30.4887C40.4844 30.5233 39.612 30.9331 39.2622 32.6944C38.4936 36.5868 40.8906 45.7086 44.3058 47.3206C44.7549 47.4931 45.2439 47.5342 45.7156 47.439C46.3263 47.3404 46.8921 47.0568 47.3367 46.6266C47.9195 46.051 48.4149 45.0693 48.2838 43.4099V43.3935C48.2692 43.2114 48.2456 43.011 48.2128 42.807L47.9304 40.4592L47.7082 40.8235C47.5261 40.2898 47.3002 39.7142 47.0179 39.0913C45.9742 36.7781 45.8995 34.8437 46.8194 33.913C47.0565 33.6714 47.3625 33.5092 47.6955 33.4485C48.0284 33.3879 48.372 33.4318 48.6791 33.5742C49.781 34.055 49.9541 35.8728 50.1362 37.6323C50.2874 39.166 50.4295 40.6159 51.138 41.4974C51.4853 41.9218 51.9693 42.2125 52.5071 42.3198C53.0449 42.4271 53.6033 42.3444 54.0869 42.0858C54.8701 41.696 55.5823 40.8235 55.4402 39.492L55.1105 36.8655L55.0468 37.31C54.8391 35.3064 55.2289 33.5287 56.1597 32.5287C56.3798 32.2661 56.6653 32.0663 56.9873 31.9492C57.3093 31.8322 57.6565 31.8021 57.9939 31.862C59.3836 32.1043 59.8262 33.5888 59.8499 39.0021L59.5494 39.1478L59.8572 41.7634C59.8748 42.0384 59.9474 42.3072 60.0707 42.5537C60.1939 42.8002 60.3654 43.0195 60.5748 43.1986C61.1705 43.6795 61.9737 43.7105 62.5256 43.5775C63.8807 43.2533 64.868 41.8745 65.3087 39.696C66.1411 35.5359 64.857 29.2647 61.6677 26.9187Z" fill="url(#paint24_linear_3557_2727)"/>
<path id="Vector_56" d="M61.3167 24.2429C59.6082 22.9861 57.0673 22.9478 54.9927 24.1482C54.174 24.6214 53.4656 25.2637 52.9147 26.0323C52.3638 26.8008 51.9831 27.6779 51.7979 28.6052C50.7159 25.4887 48.747 24.5125 47.1587 24.711C44.9292 24.9879 42.8783 27.4686 42.7872 31.2864C42.6196 30.7897 42.4976 30.2788 42.4229 29.76C42.2572 28.7692 42.086 27.7419 40.8037 27.8147C40.1334 27.8493 39.2609 28.2573 38.9112 30.0187C38.1407 33.9129 40.5396 43.0328 43.9548 44.6448C44.4037 44.8182 44.893 44.8593 45.3645 44.7632C45.9755 44.6654 46.5416 44.3817 46.9856 43.9508C47.9583 42.9909 48.6905 40.9017 46.6651 36.4155C45.6214 34.1041 45.5467 32.1679 46.4647 31.239C46.7009 30.9991 47.0052 30.8377 47.3362 30.7768C47.6673 30.7158 48.0092 30.7583 48.3153 30.8984C49.4172 31.3793 49.5903 33.1989 49.7724 34.9566C49.9218 36.4902 50.0657 37.9401 50.7724 38.8216C51.1196 39.2468 51.6037 39.5381 52.142 39.6457C52.6802 39.7534 53.2391 39.6707 53.7231 39.4118C54.6065 38.971 55.4006 37.9182 54.9781 36.2826C54.2987 33.6451 54.6138 31.1206 55.7941 29.8547C56.0145 29.592 56.3003 29.3919 56.6226 29.2746C56.9448 29.1572 57.2923 29.1268 57.6301 29.1863C59.2002 29.4595 59.5608 31.3137 59.4734 38.6304C59.4479 39.6814 59.8595 40.2387 60.2111 40.5229C60.8067 41.0055 61.6099 41.0347 62.1618 40.9017C63.5151 40.5775 64.5042 39.1987 64.945 37.0202C65.7901 32.8601 64.506 26.5925 61.3167 24.2429Z" fill="white"/>
<path id="Vector_57" d="M61.3196 24.0437C59.6111 22.7869 57.0684 22.7486 54.9938 23.949C54.1756 24.4226 53.4677 25.065 52.9171 25.8335C52.3666 26.602 51.986 27.479 51.8008 28.406C50.7189 25.2895 48.7499 24.3132 47.1616 24.5118C44.9322 24.7886 42.8794 27.2694 42.7902 31.0872C42.6218 30.5907 42.4999 30.0797 42.4259 29.5608C42.2601 28.5699 42.0889 27.5426 40.8066 27.6155C40.1363 27.6483 39.262 28.0581 38.9141 29.8194C38.1437 33.7137 40.5425 42.8336 43.9559 44.4456C44.4055 44.6189 44.8953 44.66 45.3675 44.5639C45.9785 44.4662 46.5445 44.1825 46.9886 43.7516C47.9594 42.7917 48.6934 40.7025 46.668 36.2163C45.6243 33.9049 45.5496 31.9687 46.4676 31.0398C46.7034 30.801 47.0067 30.6403 47.3366 30.5794C47.6666 30.5185 48.0073 30.5603 48.3127 30.6992C49.4147 31.18 49.5877 32.9997 49.7699 34.7573C49.9211 36.291 50.065 37.7409 50.7717 38.6224C51.1189 39.0476 51.603 39.3388 52.1412 39.4465C52.6795 39.5541 53.2384 39.4715 53.7224 39.2126C54.6058 38.7718 55.3999 37.719 54.9774 36.0834C54.2962 33.4459 54.6131 30.9214 55.7934 29.6555C56.0137 29.3926 56.2994 29.1925 56.6217 29.0751C56.9441 28.9578 57.2916 28.9274 57.6294 28.987C59.1976 29.2603 59.5601 31.1145 59.4727 38.4312C59.4472 39.4821 59.8588 40.0395 60.2012 40.3236C60.7969 40.8063 61.6019 40.8355 62.1538 40.7025C63.5071 40.3783 64.4962 38.9995 64.937 36.821C65.8003 32.6591 64.5071 26.3879 61.3196 24.0437Z" fill="url(#paint25_linear_3557_2727)"/>
<g id="Clip path group">
<mask id="mask0_3557_2727" style="mask-type:luminance" maskUnits="userSpaceOnUse" x="38" y="23" width="28" height="22">
<g id="clip-path">
<path id="Vector_58" d="M61.3196 24.0437C59.6111 22.7869 57.0684 22.7486 54.9938 23.949C54.1756 24.4226 53.4677 25.065 52.9171 25.8335C52.3666 26.602 51.986 27.479 51.8008 28.406C50.7189 25.2895 48.7499 24.3132 47.1616 24.5118C44.9322 24.7886 42.8794 27.2694 42.7902 31.0872C42.6218 30.5907 42.4999 30.0797 42.4259 29.5608C42.2601 28.5699 42.0889 27.5426 40.8066 27.6155C40.1363 27.6483 39.262 28.0581 38.9141 29.8194C38.1437 33.7137 40.5425 42.8336 43.9559 44.4456C44.4055 44.6189 44.8953 44.66 45.3675 44.5639C45.9785 44.4662 46.5445 44.1825 46.9886 43.7516C47.9594 42.7917 48.6934 40.7025 46.668 36.2163C45.6243 33.9049 45.5496 31.9687 46.4676 31.0398C46.7034 30.801 47.0067 30.6403 47.3366 30.5794C47.6666 30.5185 48.0073 30.5603 48.3127 30.6992C49.4147 31.18 49.5877 32.9997 49.7699 34.7573C49.9211 36.291 50.065 37.7409 50.7717 38.6224C51.1189 39.0476 51.603 39.3388 52.1412 39.4465C52.6795 39.5541 53.2384 39.4715 53.7224 39.2126C54.6058 38.7718 55.3999 37.719 54.9774 36.0834C54.2962 33.4459 54.6131 30.9214 55.7934 29.6555C56.0137 29.3926 56.2994 29.1925 56.6217 29.0751C56.9441 28.9578 57.2916 28.9274 57.6294 28.987C59.1976 29.2603 59.5601 31.1145 59.4727 38.4312C59.4472 39.4821 59.8588 40.0395 60.2012 40.3236C60.7969 40.8063 61.6019 40.8355 62.1538 40.7025C63.5071 40.3783 64.4962 38.9995 64.937 36.821C65.8003 32.6591 64.5071 26.3879 61.3196 24.0437Z" fill="white"/>
</g>
</mask>
<g mask="url(#mask0_3557_2727)">
<g id="Group">
<g id="Vector_59" filter="url(#filter0_d_3557_2727)">
<path d="M67.5502 31.3465C66.3369 30.1394 65.2086 28.8498 64.1732 27.4869C64.1732 27.6691 64.1623 27.8403 64.1732 28.0224L63.8545 27.6581C63.3518 27.0917 62.9274 26.6126 62.4921 26.3959L62.5103 26.3758L60.7344 24.6855L60.7999 28.1189C60.8112 28.2868 60.835 28.4537 60.871 28.618C61.5813 31.8146 66.807 37.0786 69.8579 39.931C73.887 43.6977 78.4697 47.3114 79.8485 47.8141C80.1286 47.932 80.4165 48.0306 80.71 48.1092C81.9031 48.417 82.5224 48.0946 82.8429 47.7267C83.0975 47.4071 83.2304 47.0076 83.2182 46.5992V46.5701C83.2182 46.5318 83.2182 46.4918 83.2182 46.4535L83.1562 43.1257L82.4277 44.2423C81.4077 42.7086 76.9251 38.0148 74.8213 36.0914C75.0144 35.9092 75.2221 35.7271 75.4334 35.5158C72.4171 35.2845 69.6084 33.698 67.5502 31.3465Z" fill="url(#paint26_linear_3557_2727)"/>
</g>
</g>
</g>
</g>
<path id="Vector_60" d="M73.9457 36.0646C74.9858 35.2649 76.1223 34.1047 76.3883 32.1885C76.401 32.1066 76.4083 32.0246 76.4156 31.9427L76.7416 28.9774L76.279 29.8571C75.7325 27.1924 73.8638 24.3509 71.4922 22.9029C69.5943 21.7444 67.7 21.6971 66.1554 22.7681C64.8804 23.6788 64.0954 24.9757 63.8076 26.6477C64.6584 28.1329 65.6114 29.5571 66.66 30.9099C68.3976 33.5145 70.9786 35.4453 73.9457 36.0646ZM68.3648 27.3326C68.6071 27.0932 68.9163 26.9329 69.2515 26.8727C69.5867 26.8125 69.9324 26.8554 70.2427 26.9956C70.5358 27.1168 70.8062 27.2868 71.0424 27.4984C71.8256 28.1996 72.7454 29.3289 72.6816 30.7241C72.6234 31.9372 71.8456 33.132 70.3702 34.2796C70.1754 34.0555 70.0296 33.8916 69.8985 33.7459C69.6417 33.4599 69.4577 33.2523 69.1007 32.8115C67.2574 30.511 67.3394 28.3162 68.3648 27.3344V27.3326Z" fill="url(#paint27_linear_3557_2727)"/>
<path id="Vector_61" d="M66.6602 30.9107C65.6116 29.5579 64.6585 28.1337 63.8078 26.6486C63.7786 26.8216 63.7531 26.9983 63.7331 27.1804L63.4654 26.787C63.0391 26.1586 62.6785 25.6304 62.276 25.359L62.2978 25.3426L60.7532 23.4355L60.3744 26.8507H60.3835C60.3709 27.0187 60.3709 27.1873 60.3835 27.3553C60.6749 30.6156 65.1793 36.5098 67.8368 39.7319C71.3467 43.9868 75.4249 48.1597 76.729 48.8391C76.9906 48.994 77.2634 49.1291 77.545 49.2434C78.6871 49.7024 79.3446 49.462 79.7089 49.1378C80.0026 48.854 80.1859 48.4751 80.2262 48.0686V48.0377C80.2262 47.9994 80.2353 47.9612 80.2389 47.9229L80.6032 44.6152L79.7417 45.6297C78.9275 43.9759 75.0879 38.7447 73.2501 36.5663C73.465 36.4169 73.6945 36.2548 73.9313 36.0745C70.9788 35.4443 68.3978 33.5135 66.6602 30.9107Z" fill="url(#paint28_linear_3557_2727)"/>
<path id="Vector_62" d="M80.1795 42.8141C79.5401 41.346 75.5148 35.8526 73.6223 33.6049C74.7862 32.7998 76.4218 31.5868 76.7479 29.2335C77.185 26.0878 74.9428 21.8366 71.8537 19.9441C69.9557 18.7857 68.0615 18.7384 66.5169 19.8075C65.1089 20.8057 64.2966 22.2883 64.0944 24.2191L63.8248 23.8256C63.2529 22.9823 62.7993 22.3138 62.1983 22.2155C62.0642 22.1951 61.9273 22.2033 61.7967 22.2398C61.6661 22.2762 61.5447 22.3399 61.4405 22.4268C60.9032 22.842 60.6719 23.5014 60.7502 24.3884C61.0435 27.6488 65.5461 33.5412 68.2054 36.7742C71.7153 41.0272 75.7934 45.2002 77.0958 45.8814C77.3581 46.0348 77.6308 46.1699 77.9118 46.2857C79.0556 46.7429 79.7132 46.5043 80.0756 46.1801C80.7587 45.5626 80.8024 44.2439 80.1795 42.8141ZM70.7189 31.3281L70.2472 30.7944C69.9904 30.5085 69.8064 30.3026 69.4494 29.86C67.6152 27.5596 67.6917 25.3629 68.7208 24.383C68.9629 24.1439 69.2716 23.9836 69.6064 23.9231C69.9412 23.8626 70.2865 23.9049 70.5969 24.0442C70.8899 24.1664 71.1607 24.3363 71.3983 24.5469C72.1815 25.25 73.1014 26.3683 73.0376 27.7745C72.9739 28.9857 72.1979 30.1806 70.7189 31.3281Z" fill="white"/>
<path id="Vector_63" d="M80.1795 42.557C79.5401 41.0889 75.5148 35.5955 73.6223 33.3478C74.7862 32.5427 76.4218 31.3297 76.7479 28.9764C77.185 25.8307 74.9428 21.5795 71.8537 19.687C69.9557 18.5286 68.0615 18.4794 66.5169 19.5504C65.1089 20.5486 64.2966 22.0312 64.0944 23.962L63.8248 23.5685C63.2529 22.7234 62.7993 22.0567 62.1983 21.9584C62.0642 21.938 61.9273 21.9462 61.7967 21.9827C61.6661 22.0191 61.5447 22.0828 61.4405 22.1697C60.9032 22.5831 60.6719 23.2443 60.7502 24.1295C61.0435 27.3917 65.5461 33.284 68.2054 36.5062C71.7153 40.761 75.7934 44.9339 77.0958 45.6133C77.3577 45.767 77.6304 45.9015 77.9118 46.0159C79.0556 46.4749 79.7132 46.2363 80.0756 45.9121C80.7587 45.3055 80.8024 43.985 80.1795 42.557ZM70.7189 31.071L70.2472 30.5373C69.9904 30.2514 69.8064 30.0437 69.4494 29.6029C67.6152 27.3025 67.6917 25.1058 68.7208 24.1259C68.9623 23.8859 69.2711 23.725 69.6061 23.6645C69.9412 23.604 70.2867 23.6467 70.5969 23.7871C70.8903 23.9086 71.1612 24.0785 71.3983 24.2898C72.1815 24.9911 73.1014 26.1112 73.0376 27.5174C72.9739 28.7286 72.1979 29.9235 70.7189 31.071Z" fill="url(#paint29_linear_3557_2727)"/>
</g>
<defs>
<filter id="filter0_d_3557_2727" x="56.7272" y="21.9534" width="28.313" height="29.3755" filterUnits="userSpaceOnUse" color-interpolation-filters="sRGB">
<feFlood flood-opacity="0" result="BackgroundImageFix"/>
<feColorMatrix in="SourceAlpha" type="matrix" values="0 0 0 0 0 0 0 0 0 0 0 0 0 0 0 0 0 0 127 0" result="hardAlpha"/>
<feOffset dx="-1.09286" dy="0.182143"/>
<feGaussianBlur stdDeviation="1.45715"/>
<feColorMatrix type="matrix" values="0 0 0 0 0.6 0 0 0 0 0.439216 0 0 0 0 0.513726 0 0 0 1 0"/>
<feBlend mode="normal" in2="BackgroundImageFix" result="effect1_dropShadow_3557_2727"/>
<feBlend mode="normal" in="SourceGraphic" in2="effect1_dropShadow_3557_2727" result="shape"/>
</filter>
<linearGradient id="paint0_linear_3557_2727" x1="7.04087" y1="29.3143" x2="20.086" y2="35.9406" gradientUnits="userSpaceOnUse">
<stop stop-color="#F25A00"/>
<stop offset="0.46" stop-color="#FFBB00"/>
<stop offset="1" stop-color="#F25A00"/>
</linearGradient>
<linearGradient id="paint1_linear_3557_2727" x1="2.06524" y1="37.0247" x2="3.82838" y2="37.9209" gradientUnits="userSpaceOnUse">
<stop stop-color="#F25A00"/>
<stop offset="0.46" stop-color="#FFBB00"/>
<stop offset="1" stop-color="#F25A00"/>
</linearGradient>
<linearGradient id="paint2_linear_3557_2727" x1="7.89935" y1="35.1857" x2="9.15431" y2="35.8232" gradientUnits="userSpaceOnUse">
<stop stop-color="#F25A00"/>
<stop offset="0.46" stop-color="#FFBB00"/>
<stop offset="1" stop-color="#F25A00"/>
</linearGradient>
<linearGradient id="paint3_linear_3557_2727" x1="38.1135" y1="45.5375" x2="38.5543" y2="43.7962" gradientUnits="userSpaceOnUse">
<stop stop-color="#FFB900"/>
<stop offset="1" stop-color="white"/>
</linearGradient>
<linearGradient id="paint4_linear_3557_2727" x1="60.7713" y1="42.0966" x2="60.3305" y2="38.9728" gradientUnits="userSpaceOnUse">
<stop offset="0.3" stop-color="#FFB900"/>
<stop offset="0.82" stop-color="white"/>
</linearGradient>
<linearGradient id="paint5_linear_3557_2727" x1="80.2481" y1="48.5363" x2="79.7818" y2="45.2322" gradientUnits="userSpaceOnUse">
<stop offset="0.3" stop-color="#FFB900"/>
<stop offset="0.82" stop-color="white"/>
</linearGradient>
<linearGradient id="paint6_linear_3557_2727" x1="76.5215" y1="32.341" x2="76.1208" y2="29.5032" gradientUnits="userSpaceOnUse">
<stop offset="0.3" stop-color="#FFB900"/>
<stop offset="0.82" stop-color="white"/>
</linearGradient>
<linearGradient id="paint7_linear_3557_2727" x1="93.2843" y1="25.8797" x2="92.8107" y2="22.5319" gradientUnits="userSpaceOnUse">
<stop offset="0.3" stop-color="#FFB900"/>
<stop offset="0.82" stop-color="white"/>
</linearGradient>
<linearGradient id="paint8_linear_3557_2727" x1="77.0592" y1="12.0009" x2="76.6111" y2="8.82246" gradientUnits="userSpaceOnUse">
<stop offset="0.3" stop-color="#FFB900"/>
<stop offset="0.82" stop-color="white"/>
</linearGradient>
<linearGradient id="paint9_linear_3557_2727" x1="79.8693" y1="8.45332" x2="79.6617" y2="6.99071" gradientUnits="userSpaceOnUse">
<stop offset="0.3" stop-color="#FFB900"/>
<stop offset="0.82" stop-color="white"/>
</linearGradient>
<linearGradient id="paint10_linear_3557_2727" x1="59.2873" y1="4.71946" x2="58.7882" y2="1.18587" gradientUnits="userSpaceOnUse">
<stop offset="0.3" stop-color="#FFB900"/>
<stop offset="0.82" stop-color="white"/>
</linearGradient>
<linearGradient id="paint11_linear_3557_2727" x1="47.6428" y1="18.8977" x2="47.2293" y2="15.9743" gradientUnits="userSpaceOnUse">
<stop offset="0.3" stop-color="#FFB900"/>
<stop offset="0.82" stop-color="white"/>
</linearGradient>
<linearGradient id="paint12_linear_3557_2727" x1="13.8828" y1="18.8467" x2="13.4511" y2="15.794" gradientUnits="userSpaceOnUse">
<stop offset="0.3" stop-color="#FFB900"/>
<stop offset="0.82" stop-color="white"/>
</linearGradient>
<linearGradient id="paint13_linear_3557_2727" x1="55.1162" y1="4.38613" x2="82.4614" y2="5.59557" gradientUnits="userSpaceOnUse">
<stop offset="0.03" stop-color="#E13600"/>
<stop offset="0.29" stop-color="#FF9200"/>
<stop offset="0.67" stop-color="#F13800"/>
</linearGradient>
<linearGradient id="paint14_linear_3557_2727" x1="44.525" y1="15.4791" x2="76.7534" y2="13.9254" gradientUnits="userSpaceOnUse">
<stop offset="0.03" stop-color="#E13600"/>
<stop offset="0.53" stop-color="#FFBA00"/>
<stop offset="1" stop-color="#C22D00"/>
</linearGradient>
<linearGradient id="paint15_linear_3557_2727" x1="12.8423" y1="16.401" x2="25.4684" y2="24.2131" gradientUnits="userSpaceOnUse">
<stop offset="0.04" stop-color="#E13600"/>
<stop offset="0.07" stop-color="#E85700"/>
<stop offset="0.11" stop-color="#F17A00"/>
<stop offset="0.15" stop-color="#F79600"/>
<stop offset="0.18" stop-color="#FBAA00"/>
<stop offset="0.22" stop-color="#FEB600"/>
<stop offset="0.26" stop-color="#FFBA00"/>
<stop offset="0.3" stop-color="#FFB600"/>
<stop offset="0.34" stop-color="#FEA800"/>
<stop offset="0.38" stop-color="#FD9300"/>
<stop offset="0.43" stop-color="#FC7500"/>
<stop offset="0.46" stop-color="#FB5B00"/>
<stop offset="0.57" stop-color="#E74B00"/>
<stop offset="0.74" stop-color="#C22D00"/>
</linearGradient>
<linearGradient id="paint16_linear_3557_2727" x1="5.32891" y1="30.7485" x2="21.2246" y2="40.2455" gradientUnits="userSpaceOnUse">
<stop offset="0.06" stop-color="#F73E00"/>
<stop offset="0.14" stop-color="#F95900"/>
<stop offset="0.28" stop-color="#FC8600"/>
<stop offset="0.38" stop-color="#FEA300"/>
<stop offset="0.45" stop-color="#FFAD00"/>
<stop offset="0.51" stop-color="#FDA700"/>
<stop offset="0.59" stop-color="#F79700"/>
<stop offset="0.68" stop-color="#EE7C00"/>
<stop offset="0.77" stop-color="#E25600"/>
<stop offset="0.83" stop-color="#D83A00"/>
<stop offset="1" stop-color="#C32E00"/>
</linearGradient>
<linearGradient id="paint17_linear_3557_2727" x1="78.6956" y1="14.1573" x2="93.9206" y2="20.2725" gradientUnits="userSpaceOnUse">
<stop offset="0.18" stop-color="#D84100"/>
<stop offset="0.25" stop-color="#E45300"/>
<stop offset="0.37" stop-color="#F86F00"/>
<stop offset="0.45" stop-color="#FF7900"/>
<stop offset="0.54" stop-color="#FF7300"/>
<stop offset="0.67" stop-color="#FF6300"/>
<stop offset="0.78" stop-color="#FF5000"/>
</linearGradient>
<linearGradient id="paint18_linear_3557_2727" x1="75.9185" y1="22.3988" x2="93.4043" y2="25.0963" gradientUnits="userSpaceOnUse">
<stop offset="0.06" stop-color="#F73E00"/>
<stop offset="0.14" stop-color="#F95900"/>
<stop offset="0.28" stop-color="#FC8600"/>
<stop offset="0.38" stop-color="#FEA300"/>
<stop offset="0.45" stop-color="#FFAD00"/>
<stop offset="0.51" stop-color="#FDA700"/>
<stop offset="0.59" stop-color="#F79700"/>
<stop offset="0.68" stop-color="#EE7C00"/>
<stop offset="0.77" stop-color="#E25600"/>
<stop offset="0.83" stop-color="#D83A00"/>
<stop offset="1" stop-color="#C32E00"/>
</linearGradient>
<linearGradient id="paint19_linear_3557_2727" x1="70.1396" y1="15.3532" x2="79.6256" y2="8.30791" gradientUnits="userSpaceOnUse">
<stop offset="0.22" stop-color="#FFBA00"/>
<stop offset="0.86" stop-color="#F15600"/>
</linearGradient>
<linearGradient id="paint20_linear_3557_2727" x1="93.3496" y1="35.1" x2="82.0494" y2="15.2882" gradientUnits="userSpaceOnUse">
<stop stop-color="#FFB900"/>
<stop offset="1" stop-color="white"/>
</linearGradient>
<linearGradient id="paint21_linear_3557_2727" x1="11.362" y1="39.228" x2="18.0576" y2="25.6255" gradientUnits="userSpaceOnUse">
<stop stop-color="#FFB900"/>
<stop offset="1" stop-color="white"/>
</linearGradient>
<linearGradient id="paint22_linear_3557_2727" x1="23.9824" y1="33.0961" x2="43.3096" y2="39.5968" gradientUnits="userSpaceOnUse">
<stop stop-color="#D93400"/>
<stop offset="0.1" stop-color="#E97112"/>
<stop offset="0.18" stop-color="#F59E1E"/>
<stop offset="0.24" stop-color="#FCBA26"/>
<stop offset="0.28" stop-color="#FFC429"/>
<stop offset="0.32" stop-color="#FFBC26"/>
<stop offset="0.39" stop-color="#FFA71E"/>
<stop offset="0.47" stop-color="#FF8410"/>
<stop offset="0.55" stop-color="#FF5C00"/>
<stop offset="0.66" stop-color="#FF8E00"/>
<stop offset="0.75" stop-color="#FFB000"/>
<stop offset="0.77" stop-color="#FEAA00"/>
<stop offset="0.81" stop-color="#FA9900"/>
<stop offset="0.84" stop-color="#F47D00"/>
<stop offset="0.88" stop-color="#ED5700"/>
<stop offset="0.89" stop-color="#EA4B00"/>
</linearGradient>
<linearGradient id="paint23_linear_3557_2727" x1="30.5428" y1="40.9967" x2="33.193" y2="30.5343" gradientUnits="userSpaceOnUse">
<stop stop-color="#FFB900"/>
<stop offset="1" stop-color="white"/>
</linearGradient>
<linearGradient id="paint24_linear_3557_2727" x1="40.5882" y1="38.5085" x2="67.509" y2="33.6033" gradientUnits="userSpaceOnUse">
<stop offset="0.01" stop-color="#D73C00"/>
<stop offset="0.05" stop-color="#F75B00"/>
<stop offset="0.06" stop-color="#F76000"/>
<stop offset="0.08" stop-color="#FB8700"/>
<stop offset="0.1" stop-color="#FDA200"/>
<stop offset="0.12" stop-color="#FEB300"/>
<stop offset="0.13" stop-color="#FFB900"/>
<stop offset="0.16" stop-color="#FFAE00"/>
<stop offset="0.2" stop-color="#FF9100"/>
<stop offset="0.22" stop-color="#FF8500"/>
<stop offset="0.24" stop-color="#EB5000"/>
<stop offset="0.26" stop-color="#F16200"/>
<stop offset="0.29" stop-color="#FF8B00"/>
<stop offset="0.34" stop-color="#FD5900"/>
<stop offset="0.35" stop-color="#F25400"/>
<stop offset="0.37" stop-color="#E84F00"/>
<stop offset="0.39" stop-color="#F06F00"/>
<stop offset="0.43" stop-color="#FB9800"/>
<stop offset="0.45" stop-color="#FFA700"/>
<stop offset="0.47" stop-color="#FEA300"/>
<stop offset="0.48" stop-color="#FC9800"/>
<stop offset="0.5" stop-color="#F98400"/>
<stop offset="0.51" stop-color="#F46900"/>
<stop offset="0.52" stop-color="#F05500"/>
<stop offset="0.61" stop-color="#FF8A00"/>
<stop offset="0.67" stop-color="#F46800"/>
<stop offset="0.71" stop-color="#EF5A00"/>
<stop offset="0.77" stop-color="#FF9600"/>
<stop offset="0.79" stop-color="#FA8D00"/>
<stop offset="0.82" stop-color="#EC7600"/>
<stop offset="0.86" stop-color="#D65000"/>
<stop offset="0.9" stop-color="#C22D00"/>
</linearGradient>
<linearGradient id="paint25_linear_3557_2727" x1="53.8809" y1="46.1486" x2="51.1596" y2="26.8942" gradientUnits="userSpaceOnUse">
<stop offset="0.3" stop-color="#FFB900"/>
<stop offset="0.82" stop-color="white"/>
</linearGradient>
<linearGradient id="paint26_linear_3557_2727" x1="62.8771" y1="37.2625" x2="87.2667" y2="34.9397" gradientUnits="userSpaceOnUse">
<stop offset="0.03" stop-color="#FF7100"/>
<stop offset="0.57" stop-color="#F75B00"/>
<stop offset="0.7" stop-color="#FF9700"/>
<stop offset="0.83" stop-color="#FF5300"/>
</linearGradient>
<linearGradient id="paint27_linear_3557_2727" x1="64.4907" y1="28.8007" x2="79.7743" y2="29.3234" gradientUnits="userSpaceOnUse">
<stop offset="0.19" stop-color="#FF6C00"/>
<stop offset="0.41" stop-color="#FE6100"/>
<stop offset="0.55" stop-color="#E14800"/>
<stop offset="0.71" stop-color="#FF6E00"/>
</linearGradient>
<linearGradient id="paint28_linear_3557_2727" x1="61.2669" y1="36.1728" x2="85.7506" y2="37.0107" gradientUnits="userSpaceOnUse">
<stop offset="0.03" stop-color="#FF7100"/>
<stop offset="0.57" stop-color="#F75B00"/>
<stop offset="0.7" stop-color="#FF9700"/>
<stop offset="0.83" stop-color="#FF5300"/>
</linearGradient>
<linearGradient id="paint29_linear_3557_2727" x1="78.2087" y1="40.0561" x2="68.7918" y2="25.8271" gradientUnits="userSpaceOnUse">
<stop stop-color="#FFB900"/>
<stop offset="0.79" stop-color="white"/>
</linearGradient>
<clipPath id="clip0_3557_2727">
<rect width="93.9532" height="56" fill="white" transform="translate(0.046875)"/>
</clipPath>
</defs>
</svg>
